<?xml version="1.0" encoding="UTF-8" standalone="no"?>
<!DOCTYPE svg PUBLIC "-//W3C//DTD SVG 1.1//EN" "http://www.w3.org/Graphics/SVG/1.1/DTD/svg11.dtd">
<svg xmlns="http://www.w3.org/2000/svg" xmlns:xl="http://www.w3.org/1999/xlink" xmlns:dc="http://purl.org/dc/elements/1.1/" version="1.1" viewBox="0 0 640 560" width="640" height="560">
  <defs>
    <filter id="Shadow" filterUnits="userSpaceOnUse" x="0" y="0">
      <feGaussianBlur in="SourceAlpha" result="blur" stdDeviation="1.308"/>
      <feOffset in="blur" result="offset" dx="0" dy="2"/>
      <feFlood flood-color="black" flood-opacity=".5" result="flood"/>
      <feComposite in="flood" in2="offset" operator="in"/>
    </filter>
    <radialGradient cx="0" cy="0" r="1" id="Gradient" gradientUnits="userSpaceOnUse">
      <stop offset="0" stop-color="white"/>
      <stop offset=".5" stop-color="#0432ff"/>
      <stop offset="1" stop-color="black"/>
    </radialGradient>
    <radialGradient id="Obj_Gradient" xl:href="#Gradient" gradientTransform="translate(371.4501 268.73894) rotate(180) scale(17.168729)"/>
    <radialGradient id="Obj_Gradient_2" xl:href="#Gradient" gradientTransform="translate(339.82694 268.73894) rotate(180) scale(17.168729)"/>
    <marker orient="auto" overflow="visible" markerUnits="strokeWidth" id="StickArrow_Marker" stroke-linejoin="miter" stroke-miterlimit="10" viewBox="-1 -3 7 6" markerWidth="7" markerHeight="6" color="black">
      <g>
        <path d="M 4.853333 0 L 0 0 M 0 -1.82 L 4.853333 0 L 0 1.82" fill="none" stroke="currentColor" stroke-width="1"/>
      </g>
    </marker>
    <radialGradient cx="0" cy="0" r="1" id="Gradient_2" gradientUnits="userSpaceOnUse">
      <stop offset="0" stop-color="white"/>
      <stop offset=".5" stop-color="#00fa00"/>
      <stop offset="1" stop-color="black"/>
    </radialGradient>
    <radialGradient id="Obj_Gradient_3" xl:href="#Gradient_2" gradientTransform="translate(225.94837 268.73894) rotate(180) scale(17.168729)"/>
    <radialGradient id="Obj_Gradient_4" xl:href="#Gradient_2" gradientTransform="translate(194.3252 268.73894) rotate(180) scale(17.168729)"/>
    <radialGradient cx="0" cy="0" r="1" id="Gradient_3" gradientUnits="userSpaceOnUse">
      <stop offset="0" stop-color="white"/>
      <stop offset=".5" stop-color="#ff2600"/>
      <stop offset="1" stop-color="black"/>
    </radialGradient>
    <radialGradient id="Obj_Gradient_5" xl:href="#Gradient_3" gradientTransform="translate(80.44664 268.73894) rotate(180) scale(17.168729)"/>
    <radialGradient id="Obj_Gradient_6" xl:href="#Gradient_3" gradientTransform="translate(48.82347 268.73894) rotate(180) scale(17.168729)"/>
    <marker orient="auto" overflow="visible" markerUnits="strokeWidth" id="StickArrow_Marker_2" stroke-linejoin="miter" stroke-miterlimit="10" viewBox="-1 -6 14 12" markerWidth="14" markerHeight="12" color="black">
      <g>
        <path d="M 11.2 0 L 0 0 M 0 -4.2 L 11.2 0 L 0 4.2" fill="none" stroke="currentColor" stroke-width="1"/>
      </g>
    </marker>
    <radialGradient id="Obj_Gradient_7" xl:href="#Gradient" gradientTransform="translate(443.69503 503.5271) rotate(180) scale(39.497606)"/>
    <radialGradient id="Obj_Gradient_8" xl:href="#Gradient_2" gradientTransform="translate(303.82532 504.3112) rotate(180) scale(39.497606)"/>
    <radialGradient id="Obj_Gradient_9" xl:href="#Gradient_3" gradientTransform="translate(156.75012 503.9943) rotate(180) scale(39.497696)"/>
    <radialGradient id="Obj_Gradient_10" xl:href="#Gradient_3" gradientTransform="translate(83.99909 503.9943) rotate(180) scale(39.497696)"/>
    <radialGradient id="Obj_Gradient_11" xl:href="#Gradient" gradientTransform="translate(374.5762 504.3112) rotate(180) scale(39.497606)"/>
    <radialGradient id="Obj_Gradient_12" xl:href="#Gradient_2" gradientTransform="translate(230.99906 504.1527) rotate(180) scale(39.497606)"/>
    <radialGradient cx="0" cy="0" r="1" id="Gradient_4" gradientUnits="userSpaceOnUse">
      <stop offset="0" stop-color="white"/>
      <stop offset=".5" stop-color="white"/>
      <stop offset="1" stop-color="black"/>
    </radialGradient>
    <radialGradient id="Obj_Gradient_13" xl:href="#Gradient_4" gradientTransform="translate(400.29106 145.76377) rotate(180) scale(30.891387)"/>
    <radialGradient id="Obj_Gradient_14" xl:href="#Gradient_4" gradientTransform="translate(340.16667 145.68456) rotate(180) scale(30.891387)"/>
    <marker orient="auto" overflow="visible" markerUnits="strokeWidth" id="StickArrow_Marker_3" stroke-linejoin="miter" stroke-miterlimit="10" viewBox="-1 -4 8 8" markerWidth="8" markerHeight="8" color="black">
      <g>
        <path d="M 5.6 0 L 0 0 M 0 -2.1 L 5.6 0 L 0 2.1" fill="none" stroke="currentColor" stroke-width="1"/>
      </g>
    </marker>
    <radialGradient cx="0" cy="0" r="1" id="Gradient_5" gradientUnits="userSpaceOnUse">
      <stop offset="0" stop-color="white"/>
      <stop offset=".5" stop-color="white"/>
      <stop offset="1" stop-color="black"/>
    </radialGradient>
    <radialGradient id="Obj_Gradient_15" xl:href="#Gradient_5" gradientTransform="translate(174.5 143.0971) scale(31.436886)"/>
    <radialGradient cx="0" cy="0" r="1" id="Gradient_6" gradientUnits="userSpaceOnUse">
      <stop offset="0" stop-color="white"/>
      <stop offset=".5" stop-color="#0432ff"/>
      <stop offset="1" stop-color="black"/>
    </radialGradient>
    <radialGradient id="Obj_Gradient_16" xl:href="#Gradient_6" gradientTransform="translate(343.50545 13.617658) scale(40.19508)"/>
    <radialGradient cx="0" cy="0" r="1" id="Gradient_7" gradientUnits="userSpaceOnUse">
      <stop offset="0" stop-color="white"/>
      <stop offset=".5" stop-color="#00fa00"/>
      <stop offset="1" stop-color="black"/>
    </radialGradient>
    <radialGradient id="Obj_Gradient_17" xl:href="#Gradient_7" gradientTransform="translate(199.35466 13.617658) scale(40.19508)"/>
    <radialGradient cx="0" cy="0" r="1" id="Gradient_8" gradientUnits="userSpaceOnUse">
      <stop offset="0" stop-color="white"/>
      <stop offset=".5" stop-color="#ff2600"/>
      <stop offset="1" stop-color="black"/>
    </radialGradient>
    <radialGradient id="Obj_Gradient_18" xl:href="#Gradient_8" gradientTransform="translate(55.203854 13.617658) scale(40.19508)"/>
    <marker orient="auto" overflow="visible" markerUnits="strokeWidth" id="FilledArrow_Marker" stroke-linejoin="miter" stroke-miterlimit="10" viewBox="-1 -4 10 8" markerWidth="10" markerHeight="8" color="black">
      <g>
        <path d="M 7.466667 0 L 0 -2.8 L 0 2.8 Z" fill="currentColor" stroke="currentColor" stroke-width="1"/>
      </g>
    </marker>
    <radialGradient id="Obj_Gradient_19" xl:href="#Gradient_8" gradientTransform="translate(55.203854 13.617658) scale(40.19508)"/>
    <radialGradient id="Obj_Gradient_20" xl:href="#Gradient_7" gradientTransform="translate(199.35466 13.617658) scale(40.19508)"/>
    <radialGradient id="Obj_Gradient_21" xl:href="#Gradient_6" gradientTransform="translate(343.50545 13.617658) scale(40.19508)"/>
    <font-face font-family="Helvetica" font-size="24" units-per-em="1000" underline-position="-75.68359" underline-thickness="49.316406" slope="0" x-height="532.22656" cap-height="719.7266" ascent="770.0195" descent="-229.98047" font-weight="700">
      <font-face-src>
        <font-face-name name="Helvetica-Bold"/>
      </font-face-src>
    </font-face>
    <radialGradient id="Obj_Gradient_22" xl:href="#Gradient_5" gradientTransform="translate(174.5 143.0971) scale(31.436886)"/>
    <radialGradient id="Obj_Gradient_23" xl:href="#Gradient_4" gradientTransform="translate(340.16667 145.68456) rotate(180) scale(30.891387)"/>
    <radialGradient id="Obj_Gradient_24" xl:href="#Gradient_4" gradientTransform="translate(400.29106 145.76377) rotate(180) scale(30.891387)"/>
    <marker orient="auto" overflow="visible" markerUnits="strokeWidth" id="Arrow_Marker" stroke-linejoin="miter" stroke-miterlimit="10" viewBox="-1 -4 8 8" markerWidth="8" markerHeight="8" color="black">
      <g>
        <path d="M 5.6 0 L 0 -2.1 L 0 2.1 Z" fill="none" stroke="currentColor" stroke-width="1"/>
      </g>
    </marker>
    <radialGradient id="Obj_Gradient_25" xl:href="#Gradient_2" gradientTransform="translate(230.99906 504.1527) rotate(180) scale(39.497606)"/>
    <radialGradient id="Obj_Gradient_26" xl:href="#Gradient" gradientTransform="translate(374.5762 504.3112) rotate(180) scale(39.497606)"/>
    <radialGradient id="Obj_Gradient_27" xl:href="#Gradient_3" gradientTransform="translate(83.99909 503.9943) rotate(180) scale(39.497696)"/>
    <radialGradient id="Obj_Gradient_28" xl:href="#Gradient_3" gradientTransform="translate(156.75012 503.9943) rotate(180) scale(39.497696)"/>
    <radialGradient id="Obj_Gradient_29" xl:href="#Gradient_2" gradientTransform="translate(303.82532 504.3112) rotate(180) scale(39.497606)"/>
    <radialGradient id="Obj_Gradient_30" xl:href="#Gradient" gradientTransform="translate(443.69503 503.5271) rotate(180) scale(39.497606)"/>
    <radialGradient id="Obj_Gradient_31" xl:href="#Gradient_3" gradientTransform="translate(48.82347 268.73894) rotate(180) scale(17.168729)"/>
    <radialGradient id="Obj_Gradient_32" xl:href="#Gradient_3" gradientTransform="translate(80.44664 268.73894) rotate(180) scale(17.168729)"/>
    <radialGradient id="Obj_Gradient_33" xl:href="#Gradient_2" gradientTransform="translate(194.3252 268.73894) rotate(180) scale(17.168729)"/>
    <radialGradient id="Obj_Gradient_34" xl:href="#Gradient_2" gradientTransform="translate(225.94837 268.73894) rotate(180) scale(17.168729)"/>
    <radialGradient id="Obj_Gradient_35" xl:href="#Gradient" gradientTransform="translate(339.82694 268.73894) rotate(180) scale(17.168729)"/>
    <radialGradient id="Obj_Gradient_36" xl:href="#Gradient" gradientTransform="translate(371.4501 268.73894) rotate(180) scale(17.168729)"/>
  </defs>
  <metadata> Produced by OmniGraffle 7.9.2 
    <dc:date>2018-10-16 18:39:00 +0000</dc:date>
  </metadata>
  <g id="map_and_merge_WoW" fill-opacity="1" stroke-dasharray="none" fill="none" stroke-opacity="1" stroke="none">
    <title>map_and_merge_WoW</title>
    <g id="map_and_merge_WoW: Layer 1">
      <title>Layer 1</title>
      <g id="Graphic_748_shadow" filter="url(#Shadow)">
        <path d="M 374.8187 283.3157 L 366.5068 275.0038 C 366.1163 274.6133 366.1163 273.98013 366.5068 273.5896 L 374.8187 265.2777 C 375.20923 264.8872 375.8424 264.8872 376.2329 265.2777 L 384.5448 273.5896 C 384.93533 273.98013 384.93533 274.6133 384.5448 275.0038 L 376.2329 283.3157 C 375.8424 283.70623 375.20923 283.70623 374.8187 283.3157 Z" fill="url(#Obj_Gradient)"/>
        <path d="M 374.8187 283.3157 L 366.5068 275.0038 C 366.1163 274.6133 366.1163 273.98013 366.5068 273.5896 L 374.8187 265.2777 C 375.20923 264.8872 375.8424 264.8872 376.2329 265.2777 L 384.5448 273.5896 C 384.93533 273.98013 384.93533 274.6133 384.5448 275.0038 L 376.2329 283.3157 C 375.8424 283.70623 375.20923 283.70623 374.8187 283.3157 Z" stroke="black" stroke-linecap="round" stroke-linejoin="round" stroke-width="3"/>
      </g>
      <g id="Graphic_749_shadow" filter="url(#Shadow)">
        <path d="M 396.55204 267.31875 L 396.55204 281.27466 C 396.55204 281.52065 396.35262 281.72007 396.10664 281.72007 L 396.10664 281.72007 C 395.86065 281.72007 395.66123 281.52065 395.66123 281.27466 L 395.66123 267.31875 C 395.66123 267.07277 395.86065 266.87335 396.10664 266.87335 L 396.10664 266.87335 C 396.35262 266.87335 396.55204 267.07277 396.55204 267.31875 Z" fill="black"/>
        <path d="M 396.55204 267.31875 L 396.55204 281.27466 C 396.55204 281.52065 396.35262 281.72007 396.10664 281.72007 L 396.10664 281.72007 C 395.86065 281.72007 395.66123 281.52065 395.66123 281.27466 L 395.66123 267.31875 C 395.66123 267.07277 395.86065 266.87335 396.10664 266.87335 L 396.10664 266.87335 C 396.35262 266.87335 396.55204 267.07277 396.55204 267.31875 Z" stroke="black" stroke-linecap="square" stroke-linejoin="round" stroke-width="1"/>
      </g>
      <g id="Graphic_750_shadow" filter="url(#Shadow)">
        <path d="M 343.19553 283.3157 L 334.88365 275.0038 C 334.49312 274.6133 334.49312 273.98013 334.88365 273.5896 L 343.19553 265.2777 C 343.58606 264.8872 344.21922 264.8872 344.60975 265.2777 L 352.92164 273.5896 C 353.31216 273.98013 353.31216 274.6133 352.92164 275.0038 L 344.60975 283.3157 C 344.21922 283.70623 343.58606 283.70623 343.19553 283.3157 Z" fill="url(#Obj_Gradient_2)"/>
        <path d="M 343.19553 283.3157 L 334.88365 275.0038 C 334.49312 274.6133 334.49312 273.98013 334.88365 273.5896 L 343.19553 265.2777 C 343.58606 264.8872 344.21922 264.8872 344.60975 265.2777 L 352.92164 273.5896 C 353.31216 273.98013 353.31216 274.6133 352.92164 275.0038 L 344.60975 283.3157 C 344.21922 283.70623 343.58606 283.70623 343.19553 283.3157 Z" stroke="black" stroke-linecap="round" stroke-linejoin="round" stroke-width="3"/>
      </g>
      <g id="Line_751_shadow" filter="url(#Shadow)">
        <line x1="324.25445" y1="274.14825" x2="410.99445" y2="274.14825" marker-end="url(#StickArrow_Marker)" stroke="black" stroke-linecap="round" stroke-linejoin="round" stroke-width="3"/>
      </g>
      <g id="Graphic_752_shadow" filter="url(#Shadow)">
        <path d="M 318.79633 259.62833 L 326.21055 252.21412 C 326.3981 252.02658 326.65244 251.92123 326.91765 251.92123 L 427.59123 251.92123 C 427.85644 251.92123 428.1108 252.02658 428.29833 252.21412 L 435.71255 259.62833 C 435.9001 259.81587 436.00544 260.07023 436.00544 260.33544 L 436.00544 288.258 C 436.00544 288.52323 435.9001 288.7776 435.71255 288.96512 L 428.29833 296.37933 C 428.1108 296.56687 427.85644 296.67223 427.59123 296.67223 L 326.91765 296.67223 C 326.65244 296.67223 326.3981 296.56687 326.21055 296.37933 L 318.79633 288.96512 C 318.6088 288.7776 318.50344 288.52323 318.50344 288.258 L 318.50344 260.33544 C 318.50344 260.07023 318.6088 259.81587 318.79633 259.62833 Z" fill="white"/>
        <path d="M 318.79633 259.62833 L 326.21055 252.21412 C 326.3981 252.02658 326.65244 251.92123 326.91765 251.92123 L 427.59123 251.92123 C 427.85644 251.92123 428.1108 252.02658 428.29833 252.21412 L 435.71255 259.62833 C 435.9001 259.81587 436.00544 260.07023 436.00544 260.33544 L 436.00544 288.258 C 436.00544 288.52323 435.9001 288.7776 435.71255 288.96512 L 428.29833 296.37933 C 428.1108 296.56687 427.85644 296.67223 427.59123 296.67223 L 326.91765 296.67223 C 326.65244 296.67223 326.3981 296.56687 326.21055 296.37933 L 318.79633 288.96512 C 318.6088 288.7776 318.50344 288.52323 318.50344 288.258 L 318.50344 260.33544 C 318.50344 260.07023 318.6088 259.81587 318.79633 259.62833 Z" stroke="black" stroke-linecap="round" stroke-linejoin="round" stroke-width="3"/>
      </g>
      <g id="Graphic_754_shadow" filter="url(#Shadow)">
        <path d="M 229.31696 283.3157 L 221.00508 275.0038 C 220.61455 274.6133 220.61455 273.98013 221.00508 273.5896 C 221.00508 273.5896 221.00508 273.5896 221.00508 273.5896 L 229.31696 265.2777 C 229.7075 264.8872 230.34065 264.8872 230.73118 265.2777 L 239.04307 273.5896 C 239.4336 273.98013 239.4336 274.6133 239.04307 275.0038 C 239.04307 275.0038 239.04307 275.0038 239.04307 275.0038 L 230.73118 283.3157 C 230.34065 283.70623 229.7075 283.70623 229.31696 283.3157 Z" fill="url(#Obj_Gradient_3)"/>
        <path d="M 229.31696 283.3157 L 221.00508 275.0038 C 220.61455 274.6133 220.61455 273.98013 221.00508 273.5896 C 221.00508 273.5896 221.00508 273.5896 221.00508 273.5896 L 229.31696 265.2777 C 229.7075 264.8872 230.34065 264.8872 230.73118 265.2777 L 239.04307 273.5896 C 239.4336 273.98013 239.4336 274.6133 239.04307 275.0038 C 239.04307 275.0038 239.04307 275.0038 239.04307 275.0038 L 230.73118 283.3157 C 230.34065 283.70623 229.7075 283.70623 229.31696 283.3157 Z" stroke="black" stroke-linecap="round" stroke-linejoin="round" stroke-width="3"/>
      </g>
      <g id="Graphic_755_shadow" filter="url(#Shadow)">
        <path d="M 251.0503 267.31875 L 251.0503 281.27466 C 251.0503 281.52065 250.85088 281.72007 250.6049 281.72007 L 250.6049 281.72007 C 250.3589 281.72007 250.1595 281.52065 250.1595 281.27466 L 250.1595 267.31875 C 250.1595 267.07277 250.3589 266.87335 250.6049 266.87335 L 250.6049 266.87335 C 250.85088 266.87335 251.0503 267.07277 251.0503 267.31875 Z" fill="black"/>
        <path d="M 251.0503 267.31875 L 251.0503 281.27466 C 251.0503 281.52065 250.85088 281.72007 250.6049 281.72007 L 250.6049 281.72007 C 250.3589 281.72007 250.1595 281.52065 250.1595 281.27466 L 250.1595 267.31875 C 250.1595 267.07277 250.3589 266.87335 250.6049 266.87335 L 250.6049 266.87335 C 250.85088 266.87335 251.0503 267.07277 251.0503 267.31875 Z" stroke="black" stroke-linecap="square" stroke-linejoin="round" stroke-width="1"/>
      </g>
      <g id="Graphic_756_shadow" filter="url(#Shadow)">
        <path d="M 197.6938 283.3157 L 189.3819 275.0038 C 188.99138 274.6133 188.99138 273.98013 189.3819 273.5896 C 189.3819 273.5896 189.3819 273.5896 189.3819 273.5896 L 197.6938 265.2777 C 198.08432 264.8872 198.71748 264.8872 199.108 265.2777 L 207.4199 273.5896 C 207.81042 273.98013 207.81042 274.6133 207.4199 275.0038 C 207.4199 275.0038 207.4199 275.0038 207.4199 275.0038 L 199.108 283.3157 C 198.71748 283.70623 198.08432 283.70623 197.6938 283.3157 Z" fill="url(#Obj_Gradient_4)"/>
        <path d="M 197.6938 283.3157 L 189.3819 275.0038 C 188.99138 274.6133 188.99138 273.98013 189.3819 273.5896 C 189.3819 273.5896 189.3819 273.5896 189.3819 273.5896 L 197.6938 265.2777 C 198.08432 264.8872 198.71748 264.8872 199.108 265.2777 L 207.4199 273.5896 C 207.81042 273.98013 207.81042 274.6133 207.4199 275.0038 C 207.4199 275.0038 207.4199 275.0038 207.4199 275.0038 L 199.108 283.3157 C 198.71748 283.70623 198.08432 283.70623 197.6938 283.3157 Z" stroke="black" stroke-linecap="round" stroke-linejoin="round" stroke-width="3"/>
      </g>
      <g id="Line_757_shadow" filter="url(#Shadow)">
        <line x1="178.7527" y1="274.14825" x2="265.4927" y2="274.14825" marker-end="url(#StickArrow_Marker)" stroke="black" stroke-linecap="round" stroke-linejoin="round" stroke-width="3"/>
      </g>
      <g id="Graphic_758_shadow" filter="url(#Shadow)">
        <path d="M 173.29461 259.62833 L 180.70883 252.21412 C 180.89636 252.02658 181.15072 251.92123 181.41593 251.92123 L 282.0895 251.92123 C 282.35472 251.92123 282.60908 252.02658 282.7966 252.21412 L 290.21083 259.62833 C 290.39836 259.81587 290.50372 260.07023 290.50372 260.33544 L 290.50372 288.258 C 290.50372 288.52323 290.39836 288.7776 290.21083 288.96512 L 282.7966 296.37933 C 282.60908 296.56687 282.35472 296.67223 282.0895 296.67223 L 181.41593 296.67223 C 181.15072 296.67223 180.89636 296.56687 180.70883 296.37933 L 173.29461 288.96512 C 173.10708 288.7776 173.00172 288.52323 173.00172 288.258 L 173.00172 260.33544 C 173.00172 260.07023 173.10708 259.81587 173.29461 259.62833 Z" fill="white"/>
        <path d="M 173.29461 259.62833 L 180.70883 252.21412 C 180.89636 252.02658 181.15072 251.92123 181.41593 251.92123 L 282.0895 251.92123 C 282.35472 251.92123 282.60908 252.02658 282.7966 252.21412 L 290.21083 259.62833 C 290.39836 259.81587 290.50372 260.07023 290.50372 260.33544 L 290.50372 288.258 C 290.50372 288.52323 290.39836 288.7776 290.21083 288.96512 L 282.7966 296.37933 C 282.60908 296.56687 282.35472 296.67223 282.0895 296.67223 L 181.41593 296.67223 C 181.15072 296.67223 180.89636 296.56687 180.70883 296.37933 L 173.29461 288.96512 C 173.10708 288.7776 173.00172 288.52323 173.00172 288.258 L 173.00172 260.33544 C 173.00172 260.07023 173.10708 259.81587 173.29461 259.62833 Z" stroke="black" stroke-linecap="round" stroke-linejoin="round" stroke-width="3"/>
      </g>
      <g id="Graphic_760_shadow" filter="url(#Shadow)">
        <path d="M 83.81523 283.3157 L 75.50335 275.0038 C 75.11282 274.6133 75.11282 273.98013 75.50335 273.5896 C 75.50335 273.5896 75.50335 273.5896 75.50335 273.5896 L 83.81523 265.2777 C 84.20576 264.8872 84.83892 264.8872 85.22945 265.2777 L 93.54134 273.5896 C 93.93186 273.98013 93.93186 274.6133 93.54134 275.0038 C 93.54134 275.0038 93.54134 275.0038 93.54134 275.0038 L 85.22945 283.3157 C 84.83892 283.70623 84.20576 283.70623 83.81523 283.3157 Z" fill="url(#Obj_Gradient_5)"/>
        <path d="M 83.81523 283.3157 L 75.50335 275.0038 C 75.11282 274.6133 75.11282 273.98013 75.50335 273.5896 C 75.50335 273.5896 75.50335 273.5896 75.50335 273.5896 L 83.81523 265.2777 C 84.20576 264.8872 84.83892 264.8872 85.22945 265.2777 L 93.54134 273.5896 C 93.93186 273.98013 93.93186 274.6133 93.54134 275.0038 C 93.54134 275.0038 93.54134 275.0038 93.54134 275.0038 L 85.22945 283.3157 C 84.83892 283.70623 84.20576 283.70623 83.81523 283.3157 Z" stroke="black" stroke-linecap="round" stroke-linejoin="round" stroke-width="3"/>
      </g>
      <g id="Graphic_761_shadow" filter="url(#Shadow)">
        <path d="M 105.54858 267.31875 L 105.54858 281.27466 C 105.54858 281.52065 105.34916 281.72007 105.10318 281.72007 L 105.10318 281.72007 C 104.85719 281.72007 104.65777 281.52065 104.65777 281.27466 L 104.65777 267.31875 C 104.65777 267.07277 104.85719 266.87335 105.10318 266.87335 L 105.10318 266.87335 C 105.34916 266.87335 105.54858 267.07277 105.54858 267.31875 Z" fill="black"/>
        <path d="M 105.54858 267.31875 L 105.54858 281.27466 C 105.54858 281.52065 105.34916 281.72007 105.10318 281.72007 L 105.10318 281.72007 C 104.85719 281.72007 104.65777 281.52065 104.65777 281.27466 L 104.65777 267.31875 C 104.65777 267.07277 104.85719 266.87335 105.10318 266.87335 L 105.10318 266.87335 C 105.34916 266.87335 105.54858 267.07277 105.54858 267.31875 Z" stroke="black" stroke-linecap="square" stroke-linejoin="round" stroke-width="1"/>
      </g>
      <g id="Graphic_762_shadow" filter="url(#Shadow)">
        <path d="M 52.192064 283.3157 L 43.880177 275.0038 C 43.48965 274.6133 43.48965 273.98013 43.880177 273.5896 C 43.880177 273.5896 43.880177 273.5896 43.880177 273.5896 L 52.192064 265.2777 C 52.58259 264.8872 53.215753 264.8872 53.60628 265.2777 L 61.918165 273.5896 C 62.30869 273.98013 62.30869 274.6133 61.918165 275.0038 C 61.918165 275.0038 61.918165 275.0038 61.918165 275.0038 L 53.60628 283.3157 C 53.215753 283.70623 52.58259 283.70623 52.192064 283.3157 Z" fill="url(#Obj_Gradient_6)"/>
        <path d="M 52.192064 283.3157 L 43.880177 275.0038 C 43.48965 274.6133 43.48965 273.98013 43.880177 273.5896 C 43.880177 273.5896 43.880177 273.5896 43.880177 273.5896 L 52.192064 265.2777 C 52.58259 264.8872 53.215753 264.8872 53.60628 265.2777 L 61.918165 273.5896 C 62.30869 273.98013 62.30869 274.6133 61.918165 275.0038 C 61.918165 275.0038 61.918165 275.0038 61.918165 275.0038 L 53.60628 283.3157 C 53.215753 283.70623 52.58259 283.70623 52.192064 283.3157 Z" stroke="black" stroke-linecap="round" stroke-linejoin="round" stroke-width="3"/>
      </g>
      <g id="Line_763_shadow" filter="url(#Shadow)">
        <line x1="33.25099" y1="274.14825" x2="119.99099" y2="274.14825" marker-end="url(#StickArrow_Marker)" stroke="black" stroke-linecap="round" stroke-linejoin="round" stroke-width="3"/>
      </g>
      <g id="Graphic_764_shadow" filter="url(#Shadow)">
        <path d="M 27.792893 259.62833 L 35.207107 252.21412 C 35.394643 252.02658 35.648997 251.92123 35.914214 251.92123 L 136.58779 251.92123 C 136.853 251.92123 137.10736 252.02658 137.2949 252.21412 L 144.7091 259.62833 C 144.89664 259.81587 145.002 260.07023 145.002 260.33544 L 145.002 288.258 C 145.002 288.52323 144.89664 288.7776 144.7091 288.96512 L 137.2949 296.37933 C 137.10736 296.56687 136.853 296.67223 136.58779 296.67223 L 35.914214 296.67223 C 35.648997 296.67223 35.394643 296.56687 35.207107 296.37933 L 27.792893 288.96512 C 27.605357 288.7776 27.5 288.52323 27.5 288.258 L 27.5 260.33544 C 27.5 260.07023 27.605357 259.81587 27.792893 259.62833 Z" fill="white"/>
        <path d="M 27.792893 259.62833 L 35.207107 252.21412 C 35.394643 252.02658 35.648997 251.92123 35.914214 251.92123 L 136.58779 251.92123 C 136.853 251.92123 137.10736 252.02658 137.2949 252.21412 L 144.7091 259.62833 C 144.89664 259.81587 145.002 260.07023 145.002 260.33544 L 145.002 288.258 C 145.002 288.52323 144.89664 288.7776 144.7091 288.96512 L 137.2949 296.37933 C 137.10736 296.56687 136.853 296.67223 136.58779 296.67223 L 35.914214 296.67223 C 35.648997 296.67223 35.394643 296.56687 35.207107 296.37933 L 27.792893 288.96512 C 27.605357 288.7776 27.5 288.52323 27.5 288.258 L 27.5 260.33544 C 27.5 260.07023 27.605357 259.81587 27.792893 259.62833 Z" stroke="black" stroke-linecap="round" stroke-linejoin="round" stroke-width="3"/>
      </g>
      <g id="Graphic_765_shadow" filter="url(#Shadow)">
        <path d="M 536.3245 257.99198 L 536.3245 290.0983 C 536.3245 290.66422 535.8658 291.123 535.29986 291.123 L 535.29986 291.123 C 534.73395 291.123 534.2752 290.66422 534.2752 290.0983 L 534.2752 257.99198 C 534.2752 257.42607 534.73395 256.9673 535.29986 256.9673 L 535.29986 256.9673 C 535.8658 256.9673 536.3245 257.42607 536.3245 257.99198 Z" fill="black"/>
        <path d="M 536.3245 257.99198 L 536.3245 290.0983 C 536.3245 290.66422 535.8658 291.123 535.29986 291.123 L 535.29986 291.123 C 534.73395 291.123 534.2752 290.66422 534.2752 290.0983 L 534.2752 257.99198 C 534.2752 257.42607 534.73395 256.9673 535.29986 256.9673 L 535.29986 256.9673 C 535.8658 256.9673 536.3245 257.42607 536.3245 257.99198 Z" stroke="black" stroke-linecap="square" stroke-linejoin="round" stroke-width="1"/>
      </g>
      <g id="Line_766_shadow" filter="url(#Shadow)">
        <line x1="17.636636" y1="273.7036" x2="585.9159" y2="273.7036" marker-end="url(#StickArrow_Marker_2)" stroke="black" stroke-linecap="round" stroke-linejoin="round" stroke-width="3"/>
      </g>
      <g id="Graphic_774_shadow" filter="url(#Shadow)">
        <path d="M 452.3643 537.9814 L 431.4031 517.0202 C 431.01255 516.62965 431.01255 515.9965 431.4031 515.60596 L 452.3643 494.64474 C 452.7548 494.2542 453.388 494.2542 453.7785 494.64474 L 474.7397 515.60596 C 475.13025 515.9965 475.13025 516.62965 474.7397 517.0202 L 453.7785 537.9814 C 453.388 538.3719 452.7548 538.3719 452.3643 537.9814 C 452.3643 537.9814 452.3643 537.9814 452.3643 537.9814 Z" fill="url(#Obj_Gradient_7)"/>
        <path d="M 452.3643 537.9814 L 431.4031 517.0202 C 431.01255 516.62965 431.01255 515.9965 431.4031 515.60596 L 452.3643 494.64474 C 452.7548 494.2542 453.388 494.2542 453.7785 494.64474 L 474.7397 515.60596 C 475.13025 515.9965 475.13025 516.62965 474.7397 517.0202 L 453.7785 537.9814 C 453.388 538.3719 452.7548 538.3719 452.3643 537.9814 C 452.3643 537.9814 452.3643 537.9814 452.3643 537.9814 Z" stroke="black" stroke-linecap="round" stroke-linejoin="round" stroke-width="3"/>
      </g>
      <g id="Graphic_775_shadow" filter="url(#Shadow)">
        <path d="M 312.4946 538.7655 L 291.53337 517.8043 C 291.14284 517.41375 291.14284 516.7806 291.53337 516.39006 L 312.4946 495.42884 C 312.8851 495.0383 313.51827 495.0383 313.9088 495.42884 L 334.87 516.39006 C 335.26054 516.7806 335.26054 517.41375 334.87 517.8043 L 313.9088 538.7655 C 313.51827 539.156 312.8851 539.156 312.4946 538.7655 C 312.4946 538.7655 312.4946 538.7655 312.4946 538.7655 Z" fill="url(#Obj_Gradient_8)"/>
        <path d="M 312.4946 538.7655 L 291.53337 517.8043 C 291.14284 517.41375 291.14284 516.7806 291.53337 516.39006 L 312.4946 495.42884 C 312.8851 495.0383 313.51827 495.0383 313.9088 495.42884 L 334.87 516.39006 C 335.26054 516.7806 335.26054 517.41375 334.87 517.8043 L 313.9088 538.7655 C 313.51827 539.156 312.8851 539.156 312.4946 538.7655 C 312.4946 538.7655 312.4946 538.7655 312.4946 538.7655 Z" stroke="black" stroke-linecap="round" stroke-linejoin="round" stroke-width="3"/>
      </g>
      <g id="Graphic_777_shadow" filter="url(#Shadow)">
        <path d="M 165.4194 538.4487 L 144.45814 517.4874 C 144.06761 517.0969 144.06761 516.4637 144.45814 516.0732 C 144.45814 516.0732 144.45814 516.0732 144.45814 516.0732 L 165.4194 495.1119 C 165.80993 494.7214 166.4431 494.7214 166.83362 495.1119 L 187.79489 516.0732 C 188.18541 516.4637 188.18541 517.0969 187.79489 517.4874 C 187.79489 517.4874 187.79489 517.4874 187.79489 517.4874 L 166.83362 538.4487 C 166.4431 538.8392 165.80993 538.8392 165.4194 538.4487 Z" fill="url(#Obj_Gradient_9)"/>
        <path d="M 165.4194 538.4487 L 144.45814 517.4874 C 144.06761 517.0969 144.06761 516.4637 144.45814 516.0732 C 144.45814 516.0732 144.45814 516.0732 144.45814 516.0732 L 165.4194 495.1119 C 165.80993 494.7214 166.4431 494.7214 166.83362 495.1119 L 187.79489 516.0732 C 188.18541 516.4637 188.18541 517.0969 187.79489 517.4874 C 187.79489 517.4874 187.79489 517.4874 187.79489 517.4874 L 166.83362 538.4487 C 166.4431 538.8392 165.80993 538.8392 165.4194 538.4487 Z" stroke="black" stroke-linecap="round" stroke-linejoin="round" stroke-width="3"/>
      </g>
      <g id="Graphic_778_shadow" filter="url(#Shadow)">
        <path d="M 92.66838 538.4487 L 71.70711 517.4874 C 71.31658 517.0969 71.31658 516.4637 71.70711 516.0732 C 71.70711 516.0732 71.70711 516.0732 71.70711 516.0732 L 92.66838 495.1119 C 93.0589 494.7214 93.69206 494.7214 94.08259 495.1119 L 115.04386 516.0732 C 115.43438 516.4637 115.43438 517.0969 115.04386 517.4874 C 115.04386 517.4874 115.04386 517.4874 115.04386 517.4874 L 94.08259 538.4487 C 93.69206 538.8392 93.0589 538.8392 92.66838 538.4487 Z" fill="url(#Obj_Gradient_10)"/>
        <path d="M 92.66838 538.4487 L 71.70711 517.4874 C 71.31658 517.0969 71.31658 516.4637 71.70711 516.0732 C 71.70711 516.0732 71.70711 516.0732 71.70711 516.0732 L 92.66838 495.1119 C 93.0589 494.7214 93.69206 494.7214 94.08259 495.1119 L 115.04386 516.0732 C 115.43438 516.4637 115.43438 517.0969 115.04386 517.4874 C 115.04386 517.4874 115.04386 517.4874 115.04386 517.4874 L 94.08259 538.4487 C 93.69206 538.8392 93.0589 538.8392 92.66838 538.4487 Z" stroke="black" stroke-linecap="round" stroke-linejoin="round" stroke-width="3"/>
      </g>
      <g id="Graphic_779_shadow" filter="url(#Shadow)">
        <path d="M 536.3245 500.7271 L 536.3245 532.8334 C 536.3245 533.39933 535.8658 533.8581 535.29986 533.8581 L 535.29986 533.8581 C 534.73395 533.8581 534.2752 533.39933 534.2752 532.8334 L 534.2752 500.7271 C 534.2752 500.1612 534.73395 499.7024 535.29986 499.7024 L 535.29986 499.7024 C 535.8658 499.7024 536.3245 500.1612 536.3245 500.7271 Z" fill="black"/>
        <path d="M 536.3245 500.7271 L 536.3245 532.8334 C 536.3245 533.39933 535.8658 533.8581 535.29986 533.8581 L 535.29986 533.8581 C 534.73395 533.8581 534.2752 533.39933 534.2752 532.8334 L 534.2752 500.7271 C 534.2752 500.1612 534.73395 499.7024 535.29986 499.7024 L 535.29986 499.7024 C 535.8658 499.7024 536.3245 500.1612 536.3245 500.7271 Z" stroke="black" stroke-linecap="square" stroke-linejoin="round" stroke-width="1"/>
      </g>
      <g id="Graphic_780_shadow" filter="url(#Shadow)">
        <path d="M 383.24544 538.7655 L 362.28423 517.8043 C 361.8937 517.41375 361.8937 516.7806 362.28423 516.39006 L 383.24544 495.42884 C 383.63597 495.0383 384.26913 495.0383 384.65966 495.42884 L 405.62087 516.39006 C 406.0114 516.7806 406.0114 517.41375 405.62087 517.8043 L 384.65966 538.7655 C 384.26913 539.156 383.63597 539.156 383.24544 538.7655 C 383.24544 538.7655 383.24544 538.7655 383.24544 538.7655 Z" fill="url(#Obj_Gradient_11)"/>
        <path d="M 383.24544 538.7655 L 362.28423 517.8043 C 361.8937 517.41375 361.8937 516.7806 362.28423 516.39006 L 383.24544 495.42884 C 383.63597 495.0383 384.26913 495.0383 384.65966 495.42884 L 405.62087 516.39006 C 406.0114 516.7806 406.0114 517.41375 405.62087 517.8043 L 384.65966 538.7655 C 384.26913 539.156 383.63597 539.156 383.24544 538.7655 C 383.24544 538.7655 383.24544 538.7655 383.24544 538.7655 Z" stroke="black" stroke-linecap="round" stroke-linejoin="round" stroke-width="3"/>
      </g>
      <g id="Graphic_781_shadow" filter="url(#Shadow)">
        <path d="M 239.66832 538.607 L 218.7071 517.6458 C 218.31658 517.25527 218.31658 516.6221 218.7071 516.2316 L 239.66832 495.27036 C 240.05885 494.87984 240.692 494.87984 241.08254 495.27036 L 262.04376 516.2316 C 262.43428 516.6221 262.43428 517.25527 262.04376 517.6458 L 241.08254 538.607 C 240.692 538.99753 240.05885 538.99753 239.66832 538.607 C 239.66832 538.607 239.66832 538.607 239.66832 538.607 Z" fill="url(#Obj_Gradient_12)"/>
        <path d="M 239.66832 538.607 L 218.7071 517.6458 C 218.31658 517.25527 218.31658 516.6221 218.7071 516.2316 L 239.66832 495.27036 C 240.05885 494.87984 240.692 494.87984 241.08254 495.27036 L 262.04376 516.2316 C 262.43428 516.6221 262.43428 517.25527 262.04376 517.6458 L 241.08254 538.607 C 240.692 538.99753 240.05885 538.99753 239.66832 538.607 C 239.66832 538.607 239.66832 538.607 239.66832 538.607 Z" stroke="black" stroke-linecap="round" stroke-linejoin="round" stroke-width="3"/>
      </g>
      <g id="Line_782_shadow" filter="url(#Shadow)">
        <line x1="17.636636" y1="516.4387" x2="585.9159" y2="516.4387" marker-end="url(#StickArrow_Marker_2)" stroke="black" stroke-linecap="round" stroke-linejoin="round" stroke-width="3"/>
      </g>
      <g id="Graphic_791_shadow" filter="url(#Shadow)">
        <path d="M 18.636636 358.96717 L 623.2159 358.96717 C 623.7682 358.96717 624.2159 359.4149 624.2159 359.96717 L 624.2159 425.09346 C 624.2159 425.64574 623.7682 426.09346 623.2159 426.09346 L 18.636636 426.09346 C 18.084352 426.09346 17.636636 425.64574 17.636636 425.09346 L 17.636636 359.96717 C 17.636636 359.4149 18.084352 358.96717 18.636636 358.96717 Z" fill="white"/>
        <path d="M 18.636636 358.96717 L 623.2159 358.96717 C 623.7682 358.96717 624.2159 359.4149 624.2159 359.96717 L 624.2159 425.09346 C 624.2159 425.64574 623.7682 426.09346 623.2159 426.09346 L 18.636636 426.09346 C 18.084352 426.09346 17.636636 425.64574 17.636636 425.09346 L 17.636636 359.96717 C 17.636636 359.4149 18.084352 358.96717 18.636636 358.96717 Z" stroke="black" stroke-linecap="round" stroke-linejoin="round" stroke-width="3"/>
      </g>
      <g id="Graphic_794_shadow" filter="url(#Shadow)">
        <path d="M 406.9173 172.55667 L 390.8315 156.47088 C 390.44097 156.08036 390.44097 155.4472 390.8315 155.05667 L 406.9173 138.97088 C 407.3078 138.58036 407.94097 138.58036 408.3315 138.97088 L 424.4173 155.05667 C 424.8078 155.4472 424.8078 156.08036 424.4173 156.47088 L 408.3315 172.55667 C 407.94097 172.9472 407.3078 172.9472 406.9173 172.55667 Z" fill="url(#Obj_Gradient_13)"/>
        <path d="M 406.9173 172.55667 L 390.8315 156.47088 C 390.44097 156.08036 390.44097 155.4472 390.8315 155.05667 L 406.9173 138.97088 C 407.3078 138.58036 407.94097 138.58036 408.3315 138.97088 L 424.4173 155.05667 C 424.8078 155.4472 424.8078 156.08036 424.4173 156.47088 L 408.3315 172.55667 C 407.94097 172.9472 407.3078 172.9472 406.9173 172.55667 Z" stroke="black" stroke-linecap="round" stroke-linejoin="round" stroke-width="3"/>
      </g>
      <g id="Graphic_795_shadow" filter="url(#Shadow)">
        <path d="M 475.44683 143.61456 L 475.44683 167.61456 C 475.44683 168.16684 474.9991 168.61456 474.44683 168.61456 L 474.44683 168.61456 C 473.89455 168.61456 473.44683 168.16684 473.44683 167.61456 L 473.44683 143.61456 C 473.44683 143.06227 473.89455 142.61456 474.44683 142.61456 L 474.44683 142.61456 C 474.9991 142.61456 475.44683 143.06227 475.44683 143.61456 Z" fill="black"/>
        <path d="M 475.44683 143.61456 L 475.44683 167.61456 C 475.44683 168.16684 474.9991 168.61456 474.44683 168.61456 L 474.44683 168.61456 C 473.89455 168.61456 473.44683 168.16684 473.44683 167.61456 L 473.44683 143.61456 C 473.44683 143.06227 473.89455 142.61456 474.44683 142.61456 L 474.44683 142.61456 C 474.9991 142.61456 475.44683 143.06227 475.44683 143.61456 Z" stroke="black" stroke-linecap="square" stroke-linejoin="round" stroke-width="1"/>
      </g>
      <g id="Graphic_796_shadow" filter="url(#Shadow)">
        <path d="M 346.7929 172.47745 L 330.7071 156.39167 C 330.3166 156.00114 330.3166 155.36798 330.7071 154.97745 L 346.7929 138.89167 C 347.1834 138.50114 347.8166 138.50114 348.2071 138.89167 L 364.2929 154.97745 C 364.6834 155.36798 364.6834 156.00114 364.2929 156.39167 L 348.2071 172.47745 C 347.8166 172.86798 347.1834 172.86798 346.7929 172.47745 Z" fill="url(#Obj_Gradient_14)"/>
        <path d="M 346.7929 172.47745 L 330.7071 156.39167 C 330.3166 156.00114 330.3166 155.36798 330.7071 154.97745 L 346.7929 138.89167 C 347.1834 138.50114 347.8166 138.50114 348.2071 138.89167 L 364.2929 154.97745 C 364.6834 155.36798 364.6834 156.00114 364.2929 156.39167 L 348.2071 172.47745 C 347.8166 172.86798 347.1834 172.86798 346.7929 172.47745 Z" stroke="black" stroke-linecap="round" stroke-linejoin="round" stroke-width="3"/>
      </g>
      <g id="Line_797_shadow" filter="url(#Shadow)">
        <line x1="301.39988" y1="155.55999" x2="502.0999" y2="155.55999" marker-end="url(#StickArrow_Marker_3)" stroke="black" stroke-linecap="round" stroke-linejoin="round" stroke-width="3"/>
      </g>
      <g id="Graphic_798_shadow" filter="url(#Shadow)">
        <circle cx="180.5" cy="155.76378" r="17.5000279632832" fill="url(#Obj_Gradient_15)"/>
        <circle cx="180.5" cy="155.76378" r="17.5000279632832" stroke="black" stroke-linecap="round" stroke-linejoin="round" stroke-width="3"/>
      </g>
      <g id="Graphic_808_shadow" filter="url(#Shadow)">
        <path d="M 16.784057 121.99685 L 621.36334 121.99685 C 621.9156 121.99685 622.36334 122.44456 622.36334 122.99685 L 622.36334 188.12314 C 622.36334 188.67542 621.9156 189.12314 621.36334 189.12314 L 16.784057 189.12314 C 16.231773 189.12314 15.784057 188.67542 15.784057 188.12314 L 15.784057 122.99685 C 15.784057 122.44456 16.231773 121.99685 16.784057 121.99685 Z" fill="white"/>
        <path d="M 16.784057 121.99685 L 621.36334 121.99685 C 621.9156 121.99685 622.36334 122.44456 622.36334 122.99685 L 622.36334 188.12314 C 622.36334 188.67542 621.9156 189.12314 621.36334 189.12314 L 16.784057 189.12314 C 16.231773 189.12314 15.784057 188.67542 15.784057 188.12314 L 15.784057 122.99685 C 15.784057 122.44456 16.231773 121.99685 16.784057 121.99685 Z" stroke="black" stroke-linecap="round" stroke-linejoin="round" stroke-width="3"/>
      </g>
      <g id="Graphic_809_shadow" filter="url(#Shadow)">
        <path d="M 536.3245 15.256895 L 536.3245 47.36323 C 536.3245 47.92914 535.8658 48.3879 535.29986 48.3879 L 535.29986 48.3879 C 534.73395 48.3879 534.2752 47.92914 534.2752 47.36323 L 534.2752 15.256895 C 534.2752 14.690985 534.73395 14.232224 535.29986 14.232224 L 535.29986 14.232224 C 535.8658 14.232224 536.3245 14.690985 536.3245 15.256895 Z" fill="black"/>
        <path d="M 536.3245 15.256895 L 536.3245 47.36323 C 536.3245 47.92914 535.8658 48.3879 535.29986 48.3879 L 535.29986 48.3879 C 534.73395 48.3879 534.2752 47.92914 534.2752 47.36323 L 534.2752 15.256895 C 534.2752 14.690985 534.73395 14.232224 535.29986 14.232224 L 535.29986 14.232224 C 535.8658 14.232224 536.3245 14.690985 536.3245 15.256895 Z" stroke="black" stroke-linecap="square" stroke-linejoin="round" stroke-width="1"/>
      </g>
      <g id="Graphic_810_shadow" filter="url(#Shadow)">
        <circle cx="351.17703" cy="29.813208" r="22.3754667537436" fill="url(#Obj_Gradient_16)"/>
        <circle cx="351.17703" cy="29.813208" r="22.3754667537436" stroke="black" stroke-linecap="round" stroke-linejoin="round" stroke-width="3"/>
      </g>
      <g id="Graphic_811_shadow" filter="url(#Shadow)">
        <circle cx="207.02624" cy="29.813208" r="22.3754667537436" fill="url(#Obj_Gradient_17)"/>
        <circle cx="207.02624" cy="29.813208" r="22.3754667537436" stroke="black" stroke-linecap="round" stroke-linejoin="round" stroke-width="3"/>
      </g>
      <g id="Graphic_812_shadow" filter="url(#Shadow)">
        <circle cx="62.87543" cy="29.813208" r="22.3754667537436" fill="url(#Obj_Gradient_18)"/>
        <circle cx="62.87543" cy="29.813208" r="22.3754667537436" stroke="black" stroke-linecap="round" stroke-linejoin="round" stroke-width="3"/>
      </g>
      <g id="Line_813_shadow" filter="url(#Shadow)">
        <line x1="17.636636" y1="30.96851" x2="585.9159" y2="30.96851" marker-end="url(#StickArrow_Marker_2)" stroke="black" stroke-linecap="round" stroke-linejoin="round" stroke-width="3"/>
      </g>
      <g id="Group_735">
        <g id="Line_816">
          <line x1="62.09884" y1="53.67609" x2="60.7569" y2="94.91119" marker-end="url(#FilledArrow_Marker)" stroke="black" stroke-linecap="round" stroke-linejoin="round" stroke-dasharray="3.0,12.0" stroke-width="3"/>
        </g>
        <g id="Line_815">
          <line x1="206.9976" y1="53.68863" x2="206.94819" y2="94.89687" marker-end="url(#FilledArrow_Marker)" stroke="black" stroke-linecap="round" stroke-linejoin="round" stroke-dasharray="3.0,12.0" stroke-width="3"/>
        </g>
        <g id="Line_814">
          <line x1="351.68926" y1="53.68319" x2="352.5738" y2="94.90308" marker-end="url(#FilledArrow_Marker)" stroke="black" stroke-linecap="round" stroke-linejoin="round" stroke-dasharray="3.0,12.0" stroke-width="3"/>
        </g>
        <g id="Line_813">
          <line x1="17.636636" y1="30.96851" x2="585.9159" y2="30.96851" marker-end="url(#StickArrow_Marker_2)" stroke="black" stroke-linecap="round" stroke-linejoin="round" stroke-width="3"/>
        </g>
        <g id="Graphic_812">
          <circle cx="62.87543" cy="29.813208" r="22.3754667537436" fill="url(#Obj_Gradient_19)"/>
          <circle cx="62.87543" cy="29.813208" r="22.3754667537436" stroke="black" stroke-linecap="round" stroke-linejoin="round" stroke-width="3"/>
        </g>
        <g id="Graphic_811">
          <circle cx="207.02624" cy="29.813208" r="22.3754667537436" fill="url(#Obj_Gradient_20)"/>
          <circle cx="207.02624" cy="29.813208" r="22.3754667537436" stroke="black" stroke-linecap="round" stroke-linejoin="round" stroke-width="3"/>
        </g>
        <g id="Graphic_810">
          <circle cx="351.17703" cy="29.813208" r="22.3754667537436" fill="url(#Obj_Gradient_21)"/>
          <circle cx="351.17703" cy="29.813208" r="22.3754667537436" stroke="black" stroke-linecap="round" stroke-linejoin="round" stroke-width="3"/>
        </g>
        <g id="Graphic_809">
          <path d="M 536.3245 15.256895 L 536.3245 47.36323 C 536.3245 47.92914 535.8658 48.3879 535.29986 48.3879 L 535.29986 48.3879 C 534.73395 48.3879 534.2752 47.92914 534.2752 47.36323 L 534.2752 15.256895 C 534.2752 14.690985 534.73395 14.232224 535.29986 14.232224 L 535.29986 14.232224 C 535.8658 14.232224 536.3245 14.690985 536.3245 15.256895 Z" fill="black"/>
          <path d="M 536.3245 15.256895 L 536.3245 47.36323 C 536.3245 47.92914 535.8658 48.3879 535.29986 48.3879 L 535.29986 48.3879 C 534.73395 48.3879 534.2752 47.92914 534.2752 47.36323 L 534.2752 15.256895 C 534.2752 14.690985 534.73395 14.232224 535.29986 14.232224 L 535.29986 14.232224 C 535.8658 14.232224 536.3245 14.690985 536.3245 15.256895 Z" stroke="black" stroke-linecap="square" stroke-linejoin="round" stroke-width="1"/>
        </g>
        <g id="Group_800">
          <g id="Graphic_808">
            <path d="M 16.784057 121.99685 L 621.36334 121.99685 C 621.9156 121.99685 622.36334 122.44456 622.36334 122.99685 L 622.36334 188.12314 C 622.36334 188.67542 621.9156 189.12314 621.36334 189.12314 L 16.784057 189.12314 C 16.231773 189.12314 15.784057 188.67542 15.784057 188.12314 L 15.784057 122.99685 C 15.784057 122.44456 16.231773 121.99685 16.784057 121.99685 Z" fill="white"/>
            <path d="M 16.784057 121.99685 L 621.36334 121.99685 C 621.9156 121.99685 622.36334 122.44456 622.36334 122.99685 L 622.36334 188.12314 C 622.36334 188.67542 621.9156 189.12314 621.36334 189.12314 L 16.784057 189.12314 C 16.231773 189.12314 15.784057 188.67542 15.784057 188.12314 L 15.784057 122.99685 C 15.784057 122.44456 16.231773 121.99685 16.784057 121.99685 Z" stroke="black" stroke-linecap="round" stroke-linejoin="round" stroke-width="3"/>
            <text transform="translate(20.784057 141.05999)" fill="black">
              <tspan font-family="Helvetica" font-size="24" font-weight="700" fill="black" x="60.90292" y="23">map {                                                            }</tspan>
            </text>
          </g>
          <g id="Graphic_807"/>
          <g id="Graphic_806"/>
          <g id="Graphic_805"/>
          <g id="Graphic_804"/>
          <g id="Graphic_803"/>
          <g id="Graphic_802"/>
          <g id="Graphic_801"/>
        </g>
        <g id="Line_799">
          <line x1="535.29987" y1="48.8879" x2="535.2999" y2="94.89685" marker-end="url(#FilledArrow_Marker)" stroke="black" stroke-linecap="round" stroke-linejoin="round" stroke-dasharray="3.0,12.0" stroke-width="3"/>
        </g>
        <g id="Graphic_798">
          <circle cx="180.5" cy="155.76378" r="17.5000279632832" fill="url(#Obj_Gradient_22)"/>
          <circle cx="180.5" cy="155.76378" r="17.5000279632832" stroke="black" stroke-linecap="round" stroke-linejoin="round" stroke-width="3"/>
        </g>
        <g id="Line_797">
          <line x1="301.39988" y1="155.55999" x2="502.0999" y2="155.55999" marker-end="url(#StickArrow_Marker_3)" stroke="black" stroke-linecap="round" stroke-linejoin="round" stroke-width="3"/>
        </g>
        <g id="Graphic_796">
          <path d="M 346.7929 172.47745 L 330.7071 156.39167 C 330.3166 156.00114 330.3166 155.36798 330.7071 154.97745 L 346.7929 138.89167 C 347.1834 138.50114 347.8166 138.50114 348.2071 138.89167 L 364.2929 154.97745 C 364.6834 155.36798 364.6834 156.00114 364.2929 156.39167 L 348.2071 172.47745 C 347.8166 172.86798 347.1834 172.86798 346.7929 172.47745 Z" fill="url(#Obj_Gradient_23)"/>
          <path d="M 346.7929 172.47745 L 330.7071 156.39167 C 330.3166 156.00114 330.3166 155.36798 330.7071 154.97745 L 346.7929 138.89167 C 347.1834 138.50114 347.8166 138.50114 348.2071 138.89167 L 364.2929 154.97745 C 364.6834 155.36798 364.6834 156.00114 364.2929 156.39167 L 348.2071 172.47745 C 347.8166 172.86798 347.1834 172.86798 346.7929 172.47745 Z" stroke="black" stroke-linecap="round" stroke-linejoin="round" stroke-width="3"/>
        </g>
        <g id="Graphic_795">
          <path d="M 475.44683 143.61456 L 475.44683 167.61456 C 475.44683 168.16684 474.9991 168.61456 474.44683 168.61456 L 474.44683 168.61456 C 473.89455 168.61456 473.44683 168.16684 473.44683 167.61456 L 473.44683 143.61456 C 473.44683 143.06227 473.89455 142.61456 474.44683 142.61456 L 474.44683 142.61456 C 474.9991 142.61456 475.44683 143.06227 475.44683 143.61456 Z" fill="black"/>
          <path d="M 475.44683 143.61456 L 475.44683 167.61456 C 475.44683 168.16684 474.9991 168.61456 474.44683 168.61456 L 474.44683 168.61456 C 473.89455 168.61456 473.44683 168.16684 473.44683 167.61456 L 473.44683 143.61456 C 473.44683 143.06227 473.89455 142.61456 474.44683 142.61456 L 474.44683 142.61456 C 474.9991 142.61456 475.44683 143.06227 475.44683 143.61456 Z" stroke="black" stroke-linecap="square" stroke-linejoin="round" stroke-width="1"/>
        </g>
        <g id="Graphic_794">
          <path d="M 406.9173 172.55667 L 390.8315 156.47088 C 390.44097 156.08036 390.44097 155.4472 390.8315 155.05667 L 406.9173 138.97088 C 407.3078 138.58036 407.94097 138.58036 408.3315 138.97088 L 424.4173 155.05667 C 424.8078 155.4472 424.8078 156.08036 424.4173 156.47088 L 408.3315 172.55667 C 407.94097 172.9472 407.3078 172.9472 406.9173 172.55667 Z" fill="url(#Obj_Gradient_24)"/>
          <path d="M 406.9173 172.55667 L 390.8315 156.47088 C 390.44097 156.08036 390.44097 155.4472 390.8315 155.05667 L 406.9173 138.97088 C 407.3078 138.58036 407.94097 138.58036 408.3315 138.97088 L 424.4173 155.05667 C 424.8078 155.4472 424.8078 156.08036 424.4173 156.47088 L 408.3315 172.55667 C 407.94097 172.9472 407.3078 172.9472 406.9173 172.55667 Z" stroke="black" stroke-linecap="round" stroke-linejoin="round" stroke-width="3"/>
        </g>
        <g id="Line_793">
          <line x1="218.6491" y1="155.55999" x2="250" y2="155.55999" marker-end="url(#Arrow_Marker)" stroke="black" stroke-linecap="round" stroke-linejoin="round" stroke-dasharray="3.0,12.0" stroke-width="3"/>
        </g>
        <g id="Group_783">
          <g id="Graphic_791">
            <path d="M 18.636636 358.96717 L 623.2159 358.96717 C 623.7682 358.96717 624.2159 359.4149 624.2159 359.96717 L 624.2159 425.09346 C 624.2159 425.64574 623.7682 426.09346 623.2159 426.09346 L 18.636636 426.09346 C 18.084352 426.09346 17.636636 425.64574 17.636636 425.09346 L 17.636636 359.96717 C 17.636636 359.4149 18.084352 358.96717 18.636636 358.96717 Z" fill="white"/>
            <path d="M 18.636636 358.96717 L 623.2159 358.96717 C 623.7682 358.96717 624.2159 359.4149 624.2159 359.96717 L 624.2159 425.09346 C 624.2159 425.64574 623.7682 426.09346 623.2159 426.09346 L 18.636636 426.09346 C 18.084352 426.09346 17.636636 425.64574 17.636636 425.09346 L 17.636636 359.96717 C 17.636636 359.4149 18.084352 358.96717 18.636636 358.96717 Z" stroke="black" stroke-linecap="round" stroke-linejoin="round" stroke-width="3"/>
            <text transform="translate(22.636636 378.0303)" fill="black">
              <tspan font-family="Helvetica" font-size="24" font-weight="700" fill="black" x="262.27206" y="23">merge</tspan>
            </text>
          </g>
          <g id="Graphic_790"/>
          <g id="Graphic_789"/>
          <g id="Graphic_788"/>
          <g id="Graphic_787"/>
          <g id="Graphic_786"/>
          <g id="Graphic_785"/>
          <g id="Graphic_784"/>
        </g>
        <g id="Line_782">
          <line x1="17.636636" y1="516.4387" x2="585.9159" y2="516.4387" marker-end="url(#StickArrow_Marker_2)" stroke="black" stroke-linecap="round" stroke-linejoin="round" stroke-width="3"/>
        </g>
        <g id="Graphic_781">
          <path d="M 239.66832 538.607 L 218.7071 517.6458 C 218.31658 517.25527 218.31658 516.6221 218.7071 516.2316 L 239.66832 495.27036 C 240.05885 494.87984 240.692 494.87984 241.08254 495.27036 L 262.04376 516.2316 C 262.43428 516.6221 262.43428 517.25527 262.04376 517.6458 L 241.08254 538.607 C 240.692 538.99753 240.05885 538.99753 239.66832 538.607 C 239.66832 538.607 239.66832 538.607 239.66832 538.607 Z" fill="url(#Obj_Gradient_25)"/>
          <path d="M 239.66832 538.607 L 218.7071 517.6458 C 218.31658 517.25527 218.31658 516.6221 218.7071 516.2316 L 239.66832 495.27036 C 240.05885 494.87984 240.692 494.87984 241.08254 495.27036 L 262.04376 516.2316 C 262.43428 516.6221 262.43428 517.25527 262.04376 517.6458 L 241.08254 538.607 C 240.692 538.99753 240.05885 538.99753 239.66832 538.607 C 239.66832 538.607 239.66832 538.607 239.66832 538.607 Z" stroke="black" stroke-linecap="round" stroke-linejoin="round" stroke-width="3"/>
        </g>
        <g id="Graphic_780">
          <path d="M 383.24544 538.7655 L 362.28423 517.8043 C 361.8937 517.41375 361.8937 516.7806 362.28423 516.39006 L 383.24544 495.42884 C 383.63597 495.0383 384.26913 495.0383 384.65966 495.42884 L 405.62087 516.39006 C 406.0114 516.7806 406.0114 517.41375 405.62087 517.8043 L 384.65966 538.7655 C 384.26913 539.156 383.63597 539.156 383.24544 538.7655 C 383.24544 538.7655 383.24544 538.7655 383.24544 538.7655 Z" fill="url(#Obj_Gradient_26)"/>
          <path d="M 383.24544 538.7655 L 362.28423 517.8043 C 361.8937 517.41375 361.8937 516.7806 362.28423 516.39006 L 383.24544 495.42884 C 383.63597 495.0383 384.26913 495.0383 384.65966 495.42884 L 405.62087 516.39006 C 406.0114 516.7806 406.0114 517.41375 405.62087 517.8043 L 384.65966 538.7655 C 384.26913 539.156 383.63597 539.156 383.24544 538.7655 C 383.24544 538.7655 383.24544 538.7655 383.24544 538.7655 Z" stroke="black" stroke-linecap="round" stroke-linejoin="round" stroke-width="3"/>
        </g>
        <g id="Graphic_779">
          <path d="M 536.3245 500.7271 L 536.3245 532.8334 C 536.3245 533.39933 535.8658 533.8581 535.29986 533.8581 L 535.29986 533.8581 C 534.73395 533.8581 534.2752 533.39933 534.2752 532.8334 L 534.2752 500.7271 C 534.2752 500.1612 534.73395 499.7024 535.29986 499.7024 L 535.29986 499.7024 C 535.8658 499.7024 536.3245 500.1612 536.3245 500.7271 Z" fill="black"/>
          <path d="M 536.3245 500.7271 L 536.3245 532.8334 C 536.3245 533.39933 535.8658 533.8581 535.29986 533.8581 L 535.29986 533.8581 C 534.73395 533.8581 534.2752 533.39933 534.2752 532.8334 L 534.2752 500.7271 C 534.2752 500.1612 534.73395 499.7024 535.29986 499.7024 L 535.29986 499.7024 C 535.8658 499.7024 536.3245 500.1612 536.3245 500.7271 Z" stroke="black" stroke-linecap="square" stroke-linejoin="round" stroke-width="1"/>
        </g>
        <g id="Group_776">
          <g id="Graphic_778">
            <path d="M 92.66838 538.4487 L 71.70711 517.4874 C 71.31658 517.0969 71.31658 516.4637 71.70711 516.0732 C 71.70711 516.0732 71.70711 516.0732 71.70711 516.0732 L 92.66838 495.1119 C 93.0589 494.7214 93.69206 494.7214 94.08259 495.1119 L 115.04386 516.0732 C 115.43438 516.4637 115.43438 517.0969 115.04386 517.4874 C 115.04386 517.4874 115.04386 517.4874 115.04386 517.4874 L 94.08259 538.4487 C 93.69206 538.8392 93.0589 538.8392 92.66838 538.4487 Z" fill="url(#Obj_Gradient_27)"/>
            <path d="M 92.66838 538.4487 L 71.70711 517.4874 C 71.31658 517.0969 71.31658 516.4637 71.70711 516.0732 C 71.70711 516.0732 71.70711 516.0732 71.70711 516.0732 L 92.66838 495.1119 C 93.0589 494.7214 93.69206 494.7214 94.08259 495.1119 L 115.04386 516.0732 C 115.43438 516.4637 115.43438 517.0969 115.04386 517.4874 C 115.04386 517.4874 115.04386 517.4874 115.04386 517.4874 L 94.08259 538.4487 C 93.69206 538.8392 93.0589 538.8392 92.66838 538.4487 Z" stroke="black" stroke-linecap="round" stroke-linejoin="round" stroke-width="3"/>
          </g>
          <g id="Graphic_777">
            <path d="M 165.4194 538.4487 L 144.45814 517.4874 C 144.06761 517.0969 144.06761 516.4637 144.45814 516.0732 C 144.45814 516.0732 144.45814 516.0732 144.45814 516.0732 L 165.4194 495.1119 C 165.80993 494.7214 166.4431 494.7214 166.83362 495.1119 L 187.79489 516.0732 C 188.18541 516.4637 188.18541 517.0969 187.79489 517.4874 C 187.79489 517.4874 187.79489 517.4874 187.79489 517.4874 L 166.83362 538.4487 C 166.4431 538.8392 165.80993 538.8392 165.4194 538.4487 Z" fill="url(#Obj_Gradient_28)"/>
            <path d="M 165.4194 538.4487 L 144.45814 517.4874 C 144.06761 517.0969 144.06761 516.4637 144.45814 516.0732 C 144.45814 516.0732 144.45814 516.0732 144.45814 516.0732 L 165.4194 495.1119 C 165.80993 494.7214 166.4431 494.7214 166.83362 495.1119 L 187.79489 516.0732 C 188.18541 516.4637 188.18541 517.0969 187.79489 517.4874 C 187.79489 517.4874 187.79489 517.4874 187.79489 517.4874 L 166.83362 538.4487 C 166.4431 538.8392 165.80993 538.8392 165.4194 538.4487 Z" stroke="black" stroke-linecap="round" stroke-linejoin="round" stroke-width="3"/>
          </g>
        </g>
        <g id="Graphic_775">
          <path d="M 312.4946 538.7655 L 291.53337 517.8043 C 291.14284 517.41375 291.14284 516.7806 291.53337 516.39006 L 312.4946 495.42884 C 312.8851 495.0383 313.51827 495.0383 313.9088 495.42884 L 334.87 516.39006 C 335.26054 516.7806 335.26054 517.41375 334.87 517.8043 L 313.9088 538.7655 C 313.51827 539.156 312.8851 539.156 312.4946 538.7655 C 312.4946 538.7655 312.4946 538.7655 312.4946 538.7655 Z" fill="url(#Obj_Gradient_29)"/>
          <path d="M 312.4946 538.7655 L 291.53337 517.8043 C 291.14284 517.41375 291.14284 516.7806 291.53337 516.39006 L 312.4946 495.42884 C 312.8851 495.0383 313.51827 495.0383 313.9088 495.42884 L 334.87 516.39006 C 335.26054 516.7806 335.26054 517.41375 334.87 517.8043 L 313.9088 538.7655 C 313.51827 539.156 312.8851 539.156 312.4946 538.7655 C 312.4946 538.7655 312.4946 538.7655 312.4946 538.7655 Z" stroke="black" stroke-linecap="round" stroke-linejoin="round" stroke-width="3"/>
        </g>
        <g id="Graphic_774">
          <path d="M 452.3643 537.9814 L 431.4031 517.0202 C 431.01255 516.62965 431.01255 515.9965 431.4031 515.60596 L 452.3643 494.64474 C 452.7548 494.2542 453.388 494.2542 453.7785 494.64474 L 474.7397 515.60596 C 475.13025 515.9965 475.13025 516.62965 474.7397 517.0202 L 453.7785 537.9814 C 453.388 538.3719 452.7548 538.3719 452.3643 537.9814 C 452.3643 537.9814 452.3643 537.9814 452.3643 537.9814 Z" fill="url(#Obj_Gradient_30)"/>
          <path d="M 452.3643 537.9814 L 431.4031 517.0202 C 431.01255 516.62965 431.01255 515.9965 431.4031 515.60596 L 452.3643 494.64474 C 452.7548 494.2542 453.388 494.2542 453.7785 494.64474 L 474.7397 515.60596 C 475.13025 515.9965 475.13025 516.62965 474.7397 517.0202 L 453.7785 537.9814 C 453.388 538.3719 452.7548 538.3719 452.3643 537.9814 C 452.3643 537.9814 452.3643 537.9814 452.3643 537.9814 Z" stroke="black" stroke-linecap="round" stroke-linejoin="round" stroke-width="3"/>
        </g>
        <g id="Line_773">
          <line x1="91.18582" y1="426.09346" x2="92.15848" y2="466.377" marker-end="url(#FilledArrow_Marker)" stroke="black" stroke-linecap="round" stroke-linejoin="round" stroke-dasharray="3.0,12.0" stroke-width="3"/>
        </g>
        <g id="Line_772">
          <line x1="164.11857" y1="426.09346" x2="165.00992" y2="466.3504" marker-end="url(#FilledArrow_Marker)" stroke="black" stroke-linecap="round" stroke-linejoin="round" stroke-dasharray="3.0,12.0" stroke-width="3"/>
        </g>
        <g id="Line_771">
          <line x1="237.45456" y1="426.09346" x2="238.75935" y2="466.67517" marker-end="url(#FilledArrow_Marker)" stroke="black" stroke-linecap="round" stroke-linejoin="round" stroke-dasharray="3.0,12.0" stroke-width="3"/>
        </g>
        <g id="Line_770">
          <line x1="311.13693" y1="426.09346" x2="312.05766" y2="466.6743" marker-end="url(#FilledArrow_Marker)" stroke="black" stroke-linecap="round" stroke-linejoin="round" stroke-dasharray="3.0,12.0" stroke-width="3"/>
        </g>
        <g id="Line_769">
          <line x1="384.2615" y1="426.09346" x2="384.1242" y2="466.5389" marker-end="url(#FilledArrow_Marker)" stroke="black" stroke-linecap="round" stroke-linejoin="round" stroke-dasharray="3.0,12.0" stroke-width="3"/>
        </g>
        <g id="Line_768">
          <line x1="451.8353" y1="426.09346" x2="452.3793" y2="465.80046" marker-end="url(#FilledArrow_Marker)" stroke="black" stroke-linecap="round" stroke-linejoin="round" stroke-dasharray="3.0,12.0" stroke-width="3"/>
        </g>
        <g id="Line_767">
          <line x1="536.652" y1="426.09346" x2="535.9655" y2="472.13725" marker-end="url(#FilledArrow_Marker)" stroke="black" stroke-linecap="round" stroke-linejoin="round" stroke-dasharray="3.0,12.0" stroke-width="3"/>
        </g>
        <g id="Line_766">
          <line x1="17.636636" y1="273.7036" x2="585.9159" y2="273.7036" marker-end="url(#StickArrow_Marker_2)" stroke="black" stroke-linecap="round" stroke-linejoin="round" stroke-width="3"/>
        </g>
        <g id="Graphic_765">
          <path d="M 536.3245 257.99198 L 536.3245 290.0983 C 536.3245 290.66422 535.8658 291.123 535.29986 291.123 L 535.29986 291.123 C 534.73395 291.123 534.2752 290.66422 534.2752 290.0983 L 534.2752 257.99198 C 534.2752 257.42607 534.73395 256.9673 535.29986 256.9673 L 535.29986 256.9673 C 535.8658 256.9673 536.3245 257.42607 536.3245 257.99198 Z" fill="black"/>
          <path d="M 536.3245 257.99198 L 536.3245 290.0983 C 536.3245 290.66422 535.8658 291.123 535.29986 291.123 L 535.29986 291.123 C 534.73395 291.123 534.2752 290.66422 534.2752 290.0983 L 534.2752 257.99198 C 534.2752 257.42607 534.73395 256.9673 535.29986 256.9673 L 535.29986 256.9673 C 535.8658 256.9673 536.3245 257.42607 536.3245 257.99198 Z" stroke="black" stroke-linecap="square" stroke-linejoin="round" stroke-width="1"/>
        </g>
        <g id="Group_746">
          <g id="Graphic_764">
            <path d="M 27.792893 259.62833 L 35.207107 252.21412 C 35.394643 252.02658 35.648997 251.92123 35.914214 251.92123 L 136.58779 251.92123 C 136.853 251.92123 137.10736 252.02658 137.2949 252.21412 L 144.7091 259.62833 C 144.89664 259.81587 145.002 260.07023 145.002 260.33544 L 145.002 288.258 C 145.002 288.52323 144.89664 288.7776 144.7091 288.96512 L 137.2949 296.37933 C 137.10736 296.56687 136.853 296.67223 136.58779 296.67223 L 35.914214 296.67223 C 35.648997 296.67223 35.394643 296.56687 35.207107 296.37933 L 27.792893 288.96512 C 27.605357 288.7776 27.5 288.52323 27.5 288.258 L 27.5 260.33544 C 27.5 260.07023 27.605357 259.81587 27.792893 259.62833 Z" fill="white"/>
            <path d="M 27.792893 259.62833 L 35.207107 252.21412 C 35.394643 252.02658 35.648997 251.92123 35.914214 251.92123 L 136.58779 251.92123 C 136.853 251.92123 137.10736 252.02658 137.2949 252.21412 L 144.7091 259.62833 C 144.89664 259.81587 145.002 260.07023 145.002 260.33544 L 145.002 288.258 C 145.002 288.52323 144.89664 288.7776 144.7091 288.96512 L 137.2949 296.37933 C 137.10736 296.56687 136.853 296.67223 136.58779 296.67223 L 35.914214 296.67223 C 35.648997 296.67223 35.394643 296.56687 35.207107 296.37933 L 27.792893 288.96512 C 27.605357 288.7776 27.5 288.52323 27.5 288.258 L 27.5 260.33544 C 27.5 260.07023 27.605357 259.81587 27.792893 259.62833 Z" stroke="black" stroke-linecap="round" stroke-linejoin="round" stroke-width="3"/>
          </g>
          <g id="Group_759">
            <g id="Line_763">
              <line x1="33.25099" y1="274.14825" x2="119.99099" y2="274.14825" marker-end="url(#StickArrow_Marker)" stroke="black" stroke-linecap="round" stroke-linejoin="round" stroke-width="3"/>
            </g>
            <g id="Graphic_762">
              <path d="M 52.192064 283.3157 L 43.880177 275.0038 C 43.48965 274.6133 43.48965 273.98013 43.880177 273.5896 C 43.880177 273.5896 43.880177 273.5896 43.880177 273.5896 L 52.192064 265.2777 C 52.58259 264.8872 53.215753 264.8872 53.60628 265.2777 L 61.918165 273.5896 C 62.30869 273.98013 62.30869 274.6133 61.918165 275.0038 C 61.918165 275.0038 61.918165 275.0038 61.918165 275.0038 L 53.60628 283.3157 C 53.215753 283.70623 52.58259 283.70623 52.192064 283.3157 Z" fill="url(#Obj_Gradient_31)"/>
              <path d="M 52.192064 283.3157 L 43.880177 275.0038 C 43.48965 274.6133 43.48965 273.98013 43.880177 273.5896 C 43.880177 273.5896 43.880177 273.5896 43.880177 273.5896 L 52.192064 265.2777 C 52.58259 264.8872 53.215753 264.8872 53.60628 265.2777 L 61.918165 273.5896 C 62.30869 273.98013 62.30869 274.6133 61.918165 275.0038 C 61.918165 275.0038 61.918165 275.0038 61.918165 275.0038 L 53.60628 283.3157 C 53.215753 283.70623 52.58259 283.70623 52.192064 283.3157 Z" stroke="black" stroke-linecap="round" stroke-linejoin="round" stroke-width="3"/>
            </g>
            <g id="Graphic_761">
              <path d="M 105.54858 267.31875 L 105.54858 281.27466 C 105.54858 281.52065 105.34916 281.72007 105.10318 281.72007 L 105.10318 281.72007 C 104.85719 281.72007 104.65777 281.52065 104.65777 281.27466 L 104.65777 267.31875 C 104.65777 267.07277 104.85719 266.87335 105.10318 266.87335 L 105.10318 266.87335 C 105.34916 266.87335 105.54858 267.07277 105.54858 267.31875 Z" fill="black"/>
              <path d="M 105.54858 267.31875 L 105.54858 281.27466 C 105.54858 281.52065 105.34916 281.72007 105.10318 281.72007 L 105.10318 281.72007 C 104.85719 281.72007 104.65777 281.52065 104.65777 281.27466 L 104.65777 267.31875 C 104.65777 267.07277 104.85719 266.87335 105.10318 266.87335 L 105.10318 266.87335 C 105.34916 266.87335 105.54858 267.07277 105.54858 267.31875 Z" stroke="black" stroke-linecap="square" stroke-linejoin="round" stroke-width="1"/>
            </g>
            <g id="Graphic_760">
              <path d="M 83.81523 283.3157 L 75.50335 275.0038 C 75.11282 274.6133 75.11282 273.98013 75.50335 273.5896 C 75.50335 273.5896 75.50335 273.5896 75.50335 273.5896 L 83.81523 265.2777 C 84.20576 264.8872 84.83892 264.8872 85.22945 265.2777 L 93.54134 273.5896 C 93.93186 273.98013 93.93186 274.6133 93.54134 275.0038 C 93.54134 275.0038 93.54134 275.0038 93.54134 275.0038 L 85.22945 283.3157 C 84.83892 283.70623 84.20576 283.70623 83.81523 283.3157 Z" fill="url(#Obj_Gradient_32)"/>
              <path d="M 83.81523 283.3157 L 75.50335 275.0038 C 75.11282 274.6133 75.11282 273.98013 75.50335 273.5896 C 75.50335 273.5896 75.50335 273.5896 75.50335 273.5896 L 83.81523 265.2777 C 84.20576 264.8872 84.83892 264.8872 85.22945 265.2777 L 93.54134 273.5896 C 93.93186 273.98013 93.93186 274.6133 93.54134 275.0038 C 93.54134 275.0038 93.54134 275.0038 93.54134 275.0038 L 85.22945 283.3157 C 84.83892 283.70623 84.20576 283.70623 83.81523 283.3157 Z" stroke="black" stroke-linecap="round" stroke-linejoin="round" stroke-width="3"/>
            </g>
          </g>
          <g id="Graphic_758">
            <path d="M 173.29461 259.62833 L 180.70883 252.21412 C 180.89636 252.02658 181.15072 251.92123 181.41593 251.92123 L 282.0895 251.92123 C 282.35472 251.92123 282.60908 252.02658 282.7966 252.21412 L 290.21083 259.62833 C 290.39836 259.81587 290.50372 260.07023 290.50372 260.33544 L 290.50372 288.258 C 290.50372 288.52323 290.39836 288.7776 290.21083 288.96512 L 282.7966 296.37933 C 282.60908 296.56687 282.35472 296.67223 282.0895 296.67223 L 181.41593 296.67223 C 181.15072 296.67223 180.89636 296.56687 180.70883 296.37933 L 173.29461 288.96512 C 173.10708 288.7776 173.00172 288.52323 173.00172 288.258 L 173.00172 260.33544 C 173.00172 260.07023 173.10708 259.81587 173.29461 259.62833 Z" fill="white"/>
            <path d="M 173.29461 259.62833 L 180.70883 252.21412 C 180.89636 252.02658 181.15072 251.92123 181.41593 251.92123 L 282.0895 251.92123 C 282.35472 251.92123 282.60908 252.02658 282.7966 252.21412 L 290.21083 259.62833 C 290.39836 259.81587 290.50372 260.07023 290.50372 260.33544 L 290.50372 288.258 C 290.50372 288.52323 290.39836 288.7776 290.21083 288.96512 L 282.7966 296.37933 C 282.60908 296.56687 282.35472 296.67223 282.0895 296.67223 L 181.41593 296.67223 C 181.15072 296.67223 180.89636 296.56687 180.70883 296.37933 L 173.29461 288.96512 C 173.10708 288.7776 173.00172 288.52323 173.00172 288.258 L 173.00172 260.33544 C 173.00172 260.07023 173.10708 259.81587 173.29461 259.62833 Z" stroke="black" stroke-linecap="round" stroke-linejoin="round" stroke-width="3"/>
          </g>
          <g id="Group_753">
            <g id="Line_757">
              <line x1="178.7527" y1="274.14825" x2="265.4927" y2="274.14825" marker-end="url(#StickArrow_Marker)" stroke="black" stroke-linecap="round" stroke-linejoin="round" stroke-width="3"/>
            </g>
            <g id="Graphic_756">
              <path d="M 197.6938 283.3157 L 189.3819 275.0038 C 188.99138 274.6133 188.99138 273.98013 189.3819 273.5896 C 189.3819 273.5896 189.3819 273.5896 189.3819 273.5896 L 197.6938 265.2777 C 198.08432 264.8872 198.71748 264.8872 199.108 265.2777 L 207.4199 273.5896 C 207.81042 273.98013 207.81042 274.6133 207.4199 275.0038 C 207.4199 275.0038 207.4199 275.0038 207.4199 275.0038 L 199.108 283.3157 C 198.71748 283.70623 198.08432 283.70623 197.6938 283.3157 Z" fill="url(#Obj_Gradient_33)"/>
              <path d="M 197.6938 283.3157 L 189.3819 275.0038 C 188.99138 274.6133 188.99138 273.98013 189.3819 273.5896 C 189.3819 273.5896 189.3819 273.5896 189.3819 273.5896 L 197.6938 265.2777 C 198.08432 264.8872 198.71748 264.8872 199.108 265.2777 L 207.4199 273.5896 C 207.81042 273.98013 207.81042 274.6133 207.4199 275.0038 C 207.4199 275.0038 207.4199 275.0038 207.4199 275.0038 L 199.108 283.3157 C 198.71748 283.70623 198.08432 283.70623 197.6938 283.3157 Z" stroke="black" stroke-linecap="round" stroke-linejoin="round" stroke-width="3"/>
            </g>
            <g id="Graphic_755">
              <path d="M 251.0503 267.31875 L 251.0503 281.27466 C 251.0503 281.52065 250.85088 281.72007 250.6049 281.72007 L 250.6049 281.72007 C 250.3589 281.72007 250.1595 281.52065 250.1595 281.27466 L 250.1595 267.31875 C 250.1595 267.07277 250.3589 266.87335 250.6049 266.87335 L 250.6049 266.87335 C 250.85088 266.87335 251.0503 267.07277 251.0503 267.31875 Z" fill="black"/>
              <path d="M 251.0503 267.31875 L 251.0503 281.27466 C 251.0503 281.52065 250.85088 281.72007 250.6049 281.72007 L 250.6049 281.72007 C 250.3589 281.72007 250.1595 281.52065 250.1595 281.27466 L 250.1595 267.31875 C 250.1595 267.07277 250.3589 266.87335 250.6049 266.87335 L 250.6049 266.87335 C 250.85088 266.87335 251.0503 267.07277 251.0503 267.31875 Z" stroke="black" stroke-linecap="square" stroke-linejoin="round" stroke-width="1"/>
            </g>
            <g id="Graphic_754">
              <path d="M 229.31696 283.3157 L 221.00508 275.0038 C 220.61455 274.6133 220.61455 273.98013 221.00508 273.5896 C 221.00508 273.5896 221.00508 273.5896 221.00508 273.5896 L 229.31696 265.2777 C 229.7075 264.8872 230.34065 264.8872 230.73118 265.2777 L 239.04307 273.5896 C 239.4336 273.98013 239.4336 274.6133 239.04307 275.0038 C 239.04307 275.0038 239.04307 275.0038 239.04307 275.0038 L 230.73118 283.3157 C 230.34065 283.70623 229.7075 283.70623 229.31696 283.3157 Z" fill="url(#Obj_Gradient_34)"/>
              <path d="M 229.31696 283.3157 L 221.00508 275.0038 C 220.61455 274.6133 220.61455 273.98013 221.00508 273.5896 C 221.00508 273.5896 221.00508 273.5896 221.00508 273.5896 L 229.31696 265.2777 C 229.7075 264.8872 230.34065 264.8872 230.73118 265.2777 L 239.04307 273.5896 C 239.4336 273.98013 239.4336 274.6133 239.04307 275.0038 C 239.04307 275.0038 239.04307 275.0038 239.04307 275.0038 L 230.73118 283.3157 C 230.34065 283.70623 229.7075 283.70623 229.31696 283.3157 Z" stroke="black" stroke-linecap="round" stroke-linejoin="round" stroke-width="3"/>
            </g>
          </g>
          <g id="Graphic_752">
            <path d="M 318.79633 259.62833 L 326.21055 252.21412 C 326.3981 252.02658 326.65244 251.92123 326.91765 251.92123 L 427.59123 251.92123 C 427.85644 251.92123 428.1108 252.02658 428.29833 252.21412 L 435.71255 259.62833 C 435.9001 259.81587 436.00544 260.07023 436.00544 260.33544 L 436.00544 288.258 C 436.00544 288.52323 435.9001 288.7776 435.71255 288.96512 L 428.29833 296.37933 C 428.1108 296.56687 427.85644 296.67223 427.59123 296.67223 L 326.91765 296.67223 C 326.65244 296.67223 326.3981 296.56687 326.21055 296.37933 L 318.79633 288.96512 C 318.6088 288.7776 318.50344 288.52323 318.50344 288.258 L 318.50344 260.33544 C 318.50344 260.07023 318.6088 259.81587 318.79633 259.62833 Z" fill="white"/>
            <path d="M 318.79633 259.62833 L 326.21055 252.21412 C 326.3981 252.02658 326.65244 251.92123 326.91765 251.92123 L 427.59123 251.92123 C 427.85644 251.92123 428.1108 252.02658 428.29833 252.21412 L 435.71255 259.62833 C 435.9001 259.81587 436.00544 260.07023 436.00544 260.33544 L 436.00544 288.258 C 436.00544 288.52323 435.9001 288.7776 435.71255 288.96512 L 428.29833 296.37933 C 428.1108 296.56687 427.85644 296.67223 427.59123 296.67223 L 326.91765 296.67223 C 326.65244 296.67223 326.3981 296.56687 326.21055 296.37933 L 318.79633 288.96512 C 318.6088 288.7776 318.50344 288.52323 318.50344 288.258 L 318.50344 260.33544 C 318.50344 260.07023 318.6088 259.81587 318.79633 259.62833 Z" stroke="black" stroke-linecap="round" stroke-linejoin="round" stroke-width="3"/>
          </g>
          <g id="Group_747">
            <g id="Line_751">
              <line x1="324.25445" y1="274.14825" x2="410.99445" y2="274.14825" marker-end="url(#StickArrow_Marker)" stroke="black" stroke-linecap="round" stroke-linejoin="round" stroke-width="3"/>
            </g>
            <g id="Graphic_750">
              <path d="M 343.19553 283.3157 L 334.88365 275.0038 C 334.49312 274.6133 334.49312 273.98013 334.88365 273.5896 L 343.19553 265.2777 C 343.58606 264.8872 344.21922 264.8872 344.60975 265.2777 L 352.92164 273.5896 C 353.31216 273.98013 353.31216 274.6133 352.92164 275.0038 L 344.60975 283.3157 C 344.21922 283.70623 343.58606 283.70623 343.19553 283.3157 Z" fill="url(#Obj_Gradient_35)"/>
              <path d="M 343.19553 283.3157 L 334.88365 275.0038 C 334.49312 274.6133 334.49312 273.98013 334.88365 273.5896 L 343.19553 265.2777 C 343.58606 264.8872 344.21922 264.8872 344.60975 265.2777 L 352.92164 273.5896 C 353.31216 273.98013 353.31216 274.6133 352.92164 275.0038 L 344.60975 283.3157 C 344.21922 283.70623 343.58606 283.70623 343.19553 283.3157 Z" stroke="black" stroke-linecap="round" stroke-linejoin="round" stroke-width="3"/>
            </g>
            <g id="Graphic_749">
              <path d="M 396.55204 267.31875 L 396.55204 281.27466 C 396.55204 281.52065 396.35262 281.72007 396.10664 281.72007 L 396.10664 281.72007 C 395.86065 281.72007 395.66123 281.52065 395.66123 281.27466 L 395.66123 267.31875 C 395.66123 267.07277 395.86065 266.87335 396.10664 266.87335 L 396.10664 266.87335 C 396.35262 266.87335 396.55204 267.07277 396.55204 267.31875 Z" fill="black"/>
              <path d="M 396.55204 267.31875 L 396.55204 281.27466 C 396.55204 281.52065 396.35262 281.72007 396.10664 281.72007 L 396.10664 281.72007 C 395.86065 281.72007 395.66123 281.52065 395.66123 281.27466 L 395.66123 267.31875 C 395.66123 267.07277 395.86065 266.87335 396.10664 266.87335 L 396.10664 266.87335 C 396.35262 266.87335 396.55204 267.07277 396.55204 267.31875 Z" stroke="black" stroke-linecap="square" stroke-linejoin="round" stroke-width="1"/>
            </g>
            <g id="Graphic_748">
              <path d="M 374.8187 283.3157 L 366.5068 275.0038 C 366.1163 274.6133 366.1163 273.98013 366.5068 273.5896 L 374.8187 265.2777 C 375.20923 264.8872 375.8424 264.8872 376.2329 265.2777 L 384.5448 273.5896 C 384.93533 273.98013 384.93533 274.6133 384.5448 275.0038 L 376.2329 283.3157 C 375.8424 283.70623 375.20923 283.70623 374.8187 283.3157 Z" fill="url(#Obj_Gradient_36)"/>
              <path d="M 374.8187 283.3157 L 366.5068 275.0038 C 366.1163 274.6133 366.1163 273.98013 366.5068 273.5896 L 374.8187 265.2777 C 375.20923 264.8872 375.8424 264.8872 376.2329 265.2777 L 384.5448 273.5896 C 384.93533 273.98013 384.93533 274.6133 384.5448 275.0038 L 376.2329 283.3157 C 375.8424 283.70623 375.20923 283.70623 374.8187 283.3157 Z" stroke="black" stroke-linecap="round" stroke-linejoin="round" stroke-width="3"/>
            </g>
          </g>
        </g>
        <g id="Line_745">
          <line x1="59.87543" y1="189.12314" x2="60.156455" y2="223.90088" marker-end="url(#FilledArrow_Marker)" stroke="black" stroke-linecap="round" stroke-linejoin="round" stroke-dasharray="3.0,12.0" stroke-width="3"/>
        </g>
        <g id="Line_744">
          <line x1="206.87543" y1="189.12314" x2="206.87543" y2="223.9" marker-end="url(#FilledArrow_Marker)" stroke="black" stroke-linecap="round" stroke-linejoin="round" stroke-dasharray="3.0,12.0" stroke-width="3"/>
        </g>
        <g id="Line_743">
          <line x1="353.6996" y1="189.12314" x2="353.5174" y2="223.90037" marker-end="url(#FilledArrow_Marker)" stroke="black" stroke-linecap="round" stroke-linejoin="round" stroke-dasharray="3.0,12.0" stroke-width="3"/>
        </g>
        <g id="Line_742">
          <line x1="55.69328" y1="283.11182" x2="71.54865" y2="333.13383" marker-end="url(#FilledArrow_Marker)" stroke="black" stroke-linecap="round" stroke-linejoin="round" stroke-dasharray="3.0,12.0" stroke-width="3"/>
        </g>
        <g id="Line_741">
          <line x1="89.24596" y1="281.3794" x2="126.19505" y2="336.78144" marker-end="url(#FilledArrow_Marker)" stroke="black" stroke-linecap="round" stroke-linejoin="round" stroke-dasharray="3.0,12.0" stroke-width="3"/>
        </g>
        <g id="Line_740">
          <line x1="201.22403" y1="283.08652" x2="217.30846" y2="333.16534" marker-end="url(#FilledArrow_Marker)" stroke="black" stroke-linecap="round" stroke-linejoin="round" stroke-dasharray="3.0,12.0" stroke-width="3"/>
        </g>
        <g id="Line_739">
          <line x1="234.80257" y1="281.32806" x2="272.81205" y2="337.2574" marker-end="url(#FilledArrow_Marker)" stroke="black" stroke-linecap="round" stroke-linejoin="round" stroke-dasharray="3.0,12.0" stroke-width="3"/>
        </g>
        <g id="Line_738">
          <line x1="346.86875" y1="282.96165" x2="364.10968" y2="333.32775" marker-end="url(#FilledArrow_Marker)" stroke="black" stroke-linecap="round" stroke-linejoin="round" stroke-dasharray="3.0,12.0" stroke-width="3"/>
        </g>
        <g id="Line_737">
          <line x1="380.1368" y1="281.4843" x2="415.21797" y2="336.16843" marker-end="url(#FilledArrow_Marker)" stroke="black" stroke-linecap="round" stroke-linejoin="round" stroke-dasharray="3.0,12.0" stroke-width="3"/>
        </g>
        <g id="Line_736">
          <line x1="535.57415" y1="291.58793" x2="536.204" y2="331.87048" marker-end="url(#FilledArrow_Marker)" stroke="black" stroke-linecap="round" stroke-linejoin="round" stroke-dasharray="3.0,12.0" stroke-width="3"/>
        </g>
      </g>
      <g id="Line_817">
        <line x1="535.2999" y1="189.12314" x2="535.2999" y2="229.3673" marker-end="url(#FilledArrow_Marker)" stroke="black" stroke-linecap="round" stroke-linejoin="round" stroke-dasharray="3.0,12.0" stroke-width="3"/>
      </g>
      <g id="Graphic_818"/>
      <g id="Graphic_819"/>
      <g id="Graphic_820"/>
      <g id="Graphic_821"/>
    </g>
  </g>
</svg>
